<?xml version="1.0" encoding="UTF-8"?>
<svg version="1.1" xmlns="http://www.w3.org/2000/svg" width="699" height="699">
<path d="M0 0 C177.96192227 0 177.96192227 0 196.125 16.5625 C209.67134308 30.78480831 210.76106322 48.23199981 210.34375 66.7890625 C209.72087898 81.65343456 203.76105042 96.02473382 193.4140625 106.87109375 C180.42784053 118.32334452 165.89640279 123.05534778 148.74609375 123.015625 C147.48337646 123.01336914 146.22065918 123.01111328 144.91967773 123.00878906 C143.95618408 123.00588867 142.99269043 123.00298828 142 123 C149.20018611 136.07906957 156.42805797 149.13139643 164 162 C169.62403445 171.55942751 175.03655277 181.22294821 180.39453125 190.93359375 C184.49746932 198.34946317 188.70255211 205.69530867 193 213 C197.96079169 221.43222606 202.77364413 229.93420335 207.5 238.5 C212.7987359 248.1021216 218.23368989 257.60925814 223.78979492 267.06445312 C229.82129661 277.3510261 235.62648613 287.760735 241.42529297 298.1796875 C242.90105234 300.82278398 244.38686662 303.45981665 245.87890625 306.09375 C246.30582764 306.84785156 246.73274902 307.60195313 247.17260742 308.37890625 C247.95110258 309.75221913 248.73111564 311.12467313 249.51293945 312.49609375 C252 316.88976051 252 316.88976051 252 318 C232.86 318 213.72 318 194 318 C189.38 309.75 184.76 301.5 180 293 C174.79469653 284.0368581 174.79469653 284.0368581 169.5625 275.08984375 C163.95196439 265.51446771 158.42602088 255.89012284 152.88671875 246.2734375 C151.0203162 243.0352484 149.15126237 239.79860562 147.28125 236.5625 C138.13850544 220.73556403 129.06864554 204.87012969 120 189 C119.67 231.57 119.34 274.14 119 318 C101.51 318 84.02 318 66 318 C66 235.17 66 152.34 66 67 C109.56 66.505 109.56 66.505 154 66 C156.81989159 62.47825081 156.81989159 62.47825081 155 55 C121.34 54.67 87.68 54.34 53 54 C53 141.12 53 228.24 53 318 C35.51 318 18.02 318 0 318 C0 213.06 0 108.12 0 0 Z " fill="#1A6CDE" transform="translate(0,223)"/>
<path d="M0 0 C1.08539062 -0.01160156 2.17078125 -0.02320313 3.2890625 -0.03515625 C19.70687368 0.02361873 34.87713353 5.47980275 46.8059082 16.86254883 C55.26478606 25.44659588 60.11853251 35.07860437 64.203125 46.2578125 C64.59024155 47.30415359 64.97735809 48.35049469 65.37620544 49.42854309 C69.32123824 60.14270843 73.11695085 70.90959115 76.88311768 81.68768311 C78.94644594 87.59192208 81.01876615 93.4930071 83.08984375 99.39453125 C83.71445496 101.17537109 83.71445496 101.17537109 84.35168457 102.9921875 C88.245647 114.08900723 92.17884975 125.17165013 96.125 136.25 C97.43891346 139.94006451 98.75267356 143.63018362 100.06640625 147.3203125 C100.39073639 148.23122147 100.71506653 149.14213043 101.04922485 150.0806427 C104.7313519 160.4248521 108.39785617 170.77458625 112.0625 181.125 C112.40541077 182.09346863 112.74832153 183.06193726 113.10162354 184.05975342 C120.0694643 203.73986802 127.03221685 223.42178448 133.99609375 243.103302 C142.77641217 267.91890635 142.77641217 267.91890635 151.56082153 292.73306274 C152.5546116 295.54021765 153.54773517 298.34760767 154.54077148 301.1550293 C158.14153767 311.33057912 161.75650505 321.50093912 165.38710022 331.6658783 C167.18694877 336.70535935 168.98366506 341.74595571 170.7797842 346.78676701 C172.28747682 351.0171536 173.79935259 355.24601499 175.31427956 359.47381592 C176.02676164 361.46453229 176.73707326 363.45600678 177.44641113 365.44784546 C178.32053317 367.90237328 179.19814564 370.35566164 180.07971191 372.80752563 C180.46598755 373.89560516 180.85226318 374.98368469 181.25024414 376.10473633 C181.5897963 377.05472 181.92934845 378.00470367 182.27919006 378.98347473 C183 381.375 183 381.375 183 384.375 C107.76 384.375 32.52 384.375 -45 384.375 C-45 368.865 -45 353.355 -45 337.375 C8.13 337.375 61.26 337.375 116 337.375 C109.4 319.225 102.8 301.075 96 282.375 C85.23665686 252.27877301 85.23665686 252.27877301 81.20703125 240.96484375 C73.22067353 218.56008973 65.16190655 196.18126121 57.10957336 173.80015564 C53.76042228 164.49112511 50.41526516 155.18066513 47.07318115 145.86909485 C45.25100739 140.79448018 43.42449058 135.72151257 41.58789062 130.65209961 C40.86838641 128.66523918 40.14898548 126.67834135 39.4296875 124.69140625 C39.07392639 123.70883347 38.71816528 122.72626068 38.35162354 121.71391296 C35.9358741 115.0216734 33.57375155 108.31205248 31.23388672 101.59292603 C29.5423981 96.74836387 27.82925189 91.91161245 26.11291504 87.07580566 C25.29591892 84.75710285 24.48865257 82.43494583 23.69177246 80.10925293 C22.58774116 76.89022631 21.45021935 73.6849189 20.3046875 70.48046875 C19.82903854 69.05141457 19.82903854 69.05141457 19.34378052 67.5934906 C17.277445 61.94509594 15.22692457 59.09294894 9.89163208 56.21113586 C4.41949611 53.79235201 -1.68276515 53.11938549 -7.36328125 55.26953125 C-8.73030285 55.97678374 -10.08073053 56.71772622 -11.40625 57.5 C-13 58.375 -13 58.375 -15 58.375 C-16.9836703 63.14204014 -18.63688306 68.01462885 -20.31640625 72.89453125 C-20.99562022 74.86021183 -21.67490407 76.82586826 -22.35424805 78.79150391 C-22.71304047 79.83091125 -23.07183289 80.8703186 -23.4414978 81.94122314 C-29.61567891 99.8208502 -35.85250707 117.67673485 -42.1875 135.5 C-48.85736007 154.26895986 -55.44368238 173.06617284 -62 191.875 C-68.78603726 211.34204902 -75.60920763 230.7948799 -82.51123047 250.22119141 C-88.49695927 267.0738512 -94.40348702 283.95355279 -100.29080582 300.84076309 C-107.42483378 321.30385111 -114.5815802 341.75838122 -121.8125 362.1875 C-122.35982788 363.7358252 -122.35982788 363.7358252 -122.91821289 365.31542969 C-123.92965219 368.17566444 -124.94294482 371.03523412 -125.95703125 373.89453125 C-126.25382278 374.73397781 -126.55061432 375.57342438 -126.85639954 376.43830872 C-128.88442179 382.14384358 -128.88442179 382.14384358 -130 384.375 C-147.49 384.375 -164.98 384.375 -183 384.375 C-180.74997631 374.24989338 -180.74997631 374.24989338 -179.28271484 370.11035156 C-178.95348022 369.17337433 -178.62424561 368.23639709 -178.28503418 367.27102661 C-177.93058228 366.27924408 -177.57613037 365.28746155 -177.2109375 364.265625 C-176.83569946 363.2025412 -176.46046143 362.1394574 -176.07385254 361.04415894 C-174.84590757 357.56931117 -173.61053046 354.09715708 -172.375 350.625 C-171.51144646 348.18618916 -170.64833347 345.74722228 -169.78564453 343.30810547 C-167.60532945 337.14797336 -165.41874465 330.99009076 -163.22949219 324.83312988 C-162.08960394 321.62702444 -160.95077137 318.42054697 -159.8125 315.21386719 C-156.52422874 305.95079891 -153.2309729 296.68951729 -149.93359375 287.4296875 C-145.92293248 276.16569205 -141.92812281 264.8961082 -137.9375 253.625 C-137.59458923 252.65653137 -137.25167847 251.68806274 -136.89837646 250.69024658 C-129.68079162 230.30474958 -122.46835799 209.91742799 -115.25518703 189.5303688 C-108.67934573 170.94469198 -102.10152498 152.35971873 -95.51635742 133.77734375 C-91.87541407 123.50179863 -88.23947783 113.22450135 -84.60952759 102.94506836 C-82.78651918 97.78262687 -80.9625021 92.62054191 -79.13833046 87.45851135 C-77.86073921 83.84292009 -76.58372796 80.22712622 -75.30810547 76.61083984 C-66.06751784 50.41661627 -66.06751784 50.41661627 -62.546875 40.8515625 C-62.12889648 39.71283691 -61.71091797 38.57411133 -61.28027344 37.40087891 C-59.12790541 32.3138367 -56.24167093 27.8284384 -53 23.375 C-52.236875 22.323125 -51.47375 21.27125 -50.6875 20.1875 C-36.89533875 5.75384287 -19.69323997 -0.21049781 0 0 Z " fill="#D0A115" transform="translate(516,156.625)"/>
<path d="M0 0 C21.55907004 -0.0906019 43.11798383 -0.16415655 64.6771965 -0.20724869 C74.68948984 -0.22779675 84.70165571 -0.25576739 94.71386719 -0.30175781 C103.44947696 -0.34186482 112.18499434 -0.36748903 120.92069364 -0.37635398 C125.53807354 -0.3815287 130.15518932 -0.39352547 134.77248383 -0.42292023 C175.89378684 -0.6743536 210.87508162 6.08757144 241.1875 35.75 C265.32839676 60.18477445 277.22007482 92.56214528 277.25 126.6875 C277.25067474 127.37707794 277.25134949 128.06665588 277.25204468 128.77713013 C277.20517906 159.00195041 269.77785993 185.988446 251 210 C250.443125 210.71800781 249.88625 211.43601562 249.3125 212.17578125 C246.11017564 216.10036898 242.45522543 219.31473125 238.5390625 222.51953125 C238.03117188 223.00808594 237.52328125 223.49664062 237 224 C237 226.73201489 238.07968589 228.23536219 239.38671875 230.63671875 C239.9060498 231.59425049 240.42538086 232.55178223 240.96044922 233.53833008 C241.53037598 234.57755615 242.10030273 235.61678223 242.6875 236.6875 C243.27547363 237.76604248 243.86344727 238.84458496 244.46923828 239.95581055 C248.90221905 248.06127538 253.42303465 256.1151258 257.9855957 264.14819336 C262.15641458 271.49293398 266.27710188 278.86433975 270.375 286.25 C270.99987305 287.37607666 271.62474609 288.50215332 272.26855469 289.66235352 C274.81876493 294.25999397 277.36735552 298.85853137 279.91601562 303.45703125 C286.91673193 316.08549396 293.94088257 328.69867218 301.06445312 341.25830078 C306.12069989 350.18466491 311.0988935 359.15382699 316.06445312 368.13085938 C316.66451172 369.21431641 317.26457031 370.29777344 317.8828125 371.4140625 C318.41277832 372.3726416 318.94274414 373.3312207 319.48876953 374.31884766 C320.51738918 376.14377512 321.58819505 377.94541637 322.69482422 379.72412109 C324 382 324 382 324 384 C305.85 384 287.7 384 269 384 C266.89625 380.225625 264.7925 376.45125 262.625 372.5625 C258.12921817 364.51976355 253.59105953 356.51028638 248.88989258 348.5859375 C243.15176384 338.90622384 237.56630921 329.1375926 231.95117188 319.38623047 C230.05830863 316.10119378 228.16257293 312.81783564 226.265625 309.53515625 C219.45120675 297.74069428 212.67012849 285.92808761 205.92263794 274.09527588 C200.77331192 265.06839202 195.56164936 256.0796861 190.30859375 247.11279297 C187.09163826 241.61257026 183.90290119 236.09739511 180.74609375 230.5625 C180.3866568 229.93230957 180.02721985 229.30211914 179.65689087 228.65283203 C177.90692797 225.58275277 176.1598397 222.51106998 174.41601562 219.4375 C171.7045886 214.67112573 168.99323388 209.9307974 166.03515625 205.3125 C164 202 164 202 164 200 C165.03898438 199.76925781 166.07796875 199.53851563 167.1484375 199.30078125 C184.73724012 195.2515757 199.36191139 187.27632635 209.5625 171.875 C215.51760861 162.09256315 219.75824876 152.24221516 222 141 C222.3403125 139.329375 222.3403125 139.329375 222.6875 137.625 C224.53790776 116.16026998 220.65817817 95.15068035 207 78 C206.38253906 77.17628906 205.76507813 76.35257812 205.12890625 75.50390625 C195.05468841 63.65514728 179.96415107 57.57222168 165 55 C159.45542854 54.58254892 153.93544919 54.5613145 148.37768555 54.56762695 C146.75016547 54.55858918 145.12265215 54.54825709 143.49514771 54.53674316 C139.11793948 54.50938343 134.74086113 54.49991754 130.36357856 54.49388909 C125.77381317 54.48445015 121.18414273 54.45824268 116.59443665 54.43388367 C107.92151821 54.39036589 99.24861836 54.3617288 90.57562429 54.33856028 C80.69395631 54.31142929 70.81238455 54.26752293 60.93078554 54.22227156 C40.62056207 54.1296363 20.31034769 54.06007309 0 54 C0 36.18 0 18.36 0 0 Z " fill="#4084E3" transform="translate(0,157)"/>
<path d="M0 0 C5.47900446 2.88069493 7.34298077 5.9842136 9.19921875 11.6796875 C9.47171951 12.45861359 9.74422028 13.23753967 10.02497864 14.04006958 C10.93158077 16.64553851 11.809061 19.25991485 12.6875 21.875 C13.33125358 23.74030239 13.97714087 25.60486957 14.625 27.46875 C16.02314066 31.49903526 17.41038264 35.53285383 18.79052734 39.56933594 C22.22249394 49.58643994 25.7610435 59.56622067 29.28430176 69.55148315 C30.5093088 73.02640587 31.73124107 76.50239467 32.95214844 79.97875977 C37.73836621 93.60533772 42.56383373 107.21697399 47.4375 120.8125 C53.36531668 137.34935551 59.19417936 153.9199476 65 170.5 C71.96886164 190.40134615 78.98976483 210.28274569 86.10366821 230.13272095 C86.64663263 231.64824954 87.18895595 233.16400802 87.7305603 234.68002319 C88.97499589 238.1600695 90.23127763 241.63474516 91.51611328 245.10009766 C91.75209732 245.74276077 91.98808136 246.38542389 92.23121643 247.04756165 C92.86201686 248.76357414 93.49922704 250.47722671 94.13696289 252.19067383 C95 255 95 255 95 259 C47.48 259 -0.04 259 -49 259 C-49.33 256.36 -49.66 253.72 -50 251 C-50.27339706 251.82463242 -50.54679413 252.64926483 -50.82847595 253.49888611 C-53.40050417 261.25497868 -55.97538877 269.01011567 -58.55351925 276.76418209 C-59.8789853 280.75103521 -61.20332815 284.73825423 -62.52514648 288.72631836 C-63.79985817 292.57212065 -65.0774647 296.41694979 -66.35711861 300.26111031 C-66.84579121 301.73083489 -67.33340432 303.20091217 -67.81995964 304.67133904 C-68.49951961 306.7244523 -69.18277295 308.77630018 -69.86694336 310.82788086 C-70.25555038 311.99814316 -70.64415741 313.16840546 -71.04454041 314.37413025 C-72 317 -72 317 -73 318 C-74.50418739 318.09311889 -76.01271356 318.11746028 -77.51977539 318.11352539 C-78.96115623 318.11341209 -78.96115623 318.11341209 -80.43165588 318.11329651 C-81.476436 318.10813522 -82.52121613 318.10297394 -83.59765625 318.09765625 C-85.19364906 318.09553383 -85.19364906 318.09553383 -86.82188416 318.09336853 C-90.23545083 318.08775064 -93.648953 318.07519511 -97.0625 318.0625 C-99.37044176 318.05748731 -101.67838455 318.052924 -103.98632812 318.04882812 C-109.65757426 318.0377754 -115.32878253 318.02101987 -121 318 C-119.68273184 311.59931984 -117.96499612 305.52399282 -115.83203125 299.3515625 C-115.52069244 298.43851852 -115.20935364 297.52547455 -114.88858032 296.58476257 C-113.86803347 293.59650339 -112.84041829 290.61073073 -111.8125 287.625 C-111.09029276 285.51596617 -110.3683734 283.40683374 -109.64672852 281.29760742 C-104.35206223 265.84368351 -98.97634376 250.41823027 -93.57739258 235.00048828 C-89.15249425 222.35572649 -84.8082367 209.68494346 -80.5 197 C-75.58834655 182.53838827 -70.61145383 168.10174743 -65.5625 153.6875 C-60.29586339 138.65139034 -55.1179671 123.58734698 -50 108.5 C-43.34555002 88.88857198 -36.57918604 69.31882086 -29.71748352 49.77897644 C-27.86481376 44.49473333 -26.03646605 39.20273029 -24.22639465 33.90374756 C-23.04289215 30.44182538 -21.85084352 26.98287716 -20.6578064 23.52423096 C-20.10045644 21.90109684 -19.5471573 20.27656531 -18.99819946 18.65057373 C-18.24498578 16.42083252 -17.47766833 14.19642452 -16.70703125 11.97265625 C-16.49099243 11.32064743 -16.27495361 10.66863861 -16.05236816 9.99687195 C-13.30142295 2.17264737 -8.40361728 -1.57930049 0 0 Z M-5 117 C-7.8955893 126.05936719 -10.79081678 135.11884991 -13.68560982 144.17847157 C-15.03047043 148.3873461 -16.37544556 152.59618396 -17.72070312 156.80493164 C-18.24609857 158.44872893 -18.77148922 160.09252775 -19.296875 161.73632812 C-19.68337282 162.94556348 -19.68337282 162.94556348 -20.07767868 164.17922783 C-22.07122445 170.41734833 -24.06148389 176.65651372 -26.05070877 182.89601326 C-27.38710604 187.08580205 -28.7309188 191.27310853 -30.08105469 195.45849609 C-30.63478822 197.18456306 -31.18850174 198.91063646 -31.7421875 200.63671875 C-31.98284943 201.37525589 -32.22351135 202.11379303 -32.47146606 202.87471008 C-33.37887077 205.71566617 -34 207.99464789 -34 211 C-13.87 211 6.26 211 27 211 C25.63813359 204.87160115 24.17811463 199.09083709 22.20263672 193.17553711 C21.92924469 192.34516937 21.65585266 191.51480164 21.37417603 190.65927124 C20.48013756 187.94724688 19.57997313 185.2373 18.6796875 182.52734375 C18.05439783 180.63461178 17.42949533 178.74175186 16.80496216 176.84877014 C15.16814234 171.89098096 13.52610086 166.93493683 11.88293457 161.97924805 C10.20393135 156.91234696 8.52991559 151.84379887 6.85546875 146.77539062 C3.57516836 136.84864992 0.28934455 126.92374716 -3 117 C-3.66 117 -4.32 117 -5 117 Z " fill="#CC9A03" transform="translate(520,223)"/>
</svg>
